<svg xmlns="http://www.w3.org/2000/svg" viewBox="0 0 86 86"><title>icon_calendar</title><g id="Layer_2" data-name="Layer 2"><g id="Layer_1-2" data-name="Layer 1"><circle cx="43" cy="43" r="43" style="fill:#4dd63b"/><path d="M37.46,45.11a.93.93,0,0,0-.93-.93H33.31a.93.93,0,0,0-.93.93v3.23a.93.93,0,0,0,.93.93h3.23a.93.93,0,0,0,.93-.93V45.11Z" style="fill:#fff"/><path d="M45.54,45.11a.93.93,0,0,0-.93-.93H41.38a.93.93,0,0,0-.93.93v3.23a.93.93,0,0,0,.93.93h3.23a.93.93,0,0,0,.93-.93Z" style="fill:#fff"/><path d="M53.62,45.11a.93.93,0,0,0-.93-.93H49.46a.93.93,0,0,0-.93.93v3.23a.93.93,0,0,0,.93.93h3.23a.93.93,0,0,0,.93-.93Z" style="fill:#fff"/><path d="M37.46,53.19a.93.93,0,0,0-.93-.93H33.31a.93.93,0,0,0-.93.93v3.23a.93.93,0,0,0,.93.93h3.23a.93.93,0,0,0,.93-.93V53.19Z" style="fill:#fff"/><path d="M45.54,53.19a.93.93,0,0,0-.93-.93H41.38a.93.93,0,0,0-.93.93v3.23a.93.93,0,0,0,.93.93h3.23a.93.93,0,0,0,.93-.93Z" style="fill:#fff"/><path d="M53.62,53.19a.93.93,0,0,0-.93-.93H49.46a.93.93,0,0,0-.93.93v3.23a.93.93,0,0,0,.93.93h3.23a.93.93,0,0,0,.93-.93V53.19Z" style="fill:#fff"/><path d="M59.4,27.14v4.94a4,4,0,0,1-4,4H52.81a4.05,4.05,0,0,1-4.06-4v-5H37.26v5a4.05,4.05,0,0,1-4.06,4H30.64a4,4,0,0,1-4-4V27.14a3.67,3.67,0,0,0-3.55,3.65V59.72a3.68,3.68,0,0,0,3.66,3.68H59.29a3.68,3.68,0,0,0,3.66-3.68V30.8A3.67,3.67,0,0,0,59.4,27.14ZM58.21,57.92a1.58,1.58,0,0,1-1.58,1.58H29.3a1.58,1.58,0,0,1-1.58-1.58V43A1.58,1.58,0,0,1,29.3,41.4H56.63A1.58,1.58,0,0,1,58.21,43V57.92Z" style="fill:#fff"/><path d="M30.63,33.46h2.52a1.38,1.38,0,0,0,1.39-1.38V24a1.39,1.39,0,0,0-1.39-1.39H30.63A1.39,1.39,0,0,0,29.25,24v8.09A1.38,1.38,0,0,0,30.63,33.46Z" style="fill:#fff"/><path d="M52.78,33.46H55.3a1.38,1.38,0,0,0,1.39-1.38V24A1.39,1.39,0,0,0,55.3,22.6H52.78A1.39,1.39,0,0,0,51.39,24v8.09A1.38,1.38,0,0,0,52.78,33.46Z" style="fill:#fff"/></g></g></svg>