<svg xmlns="http://www.w3.org/2000/svg" viewBox="0 0 86 86"><title>icon_shield</title><g id="Layer_2" data-name="Layer 2"><g id="Layer_1-2" data-name="Layer 1"><circle cx="43" cy="43" r="43" style="fill:#4dd63b"/><path d="M60.57,26.77,44.86,22.14a6.58,6.58,0,0,0-3.73,0L25.43,26.77a2.76,2.76,0,0,0-2,2.63v13A29.69,29.69,0,0,0,42,69.92a2.74,2.74,0,0,0,2.08,0,29.69,29.69,0,0,0,18.5-27.51v-13A2.76,2.76,0,0,0,60.57,26.77Zm-.23,15.64A27.5,27.5,0,0,1,43.21,67.89a.55.55,0,0,1-.42,0A27.5,27.5,0,0,1,25.66,42.42v-13a.55.55,0,0,1,.39-.53l15.71-4.63a4.38,4.38,0,0,1,2.49,0l15.71,4.63a.55.55,0,0,1,.39.53v13Z" style="fill:#fff"/><path d="M55.17,31.63,43.47,28.18a1.64,1.64,0,0,0-.93,0L30.83,31.63a1.66,1.66,0,0,0-1.18,1.58v9.2A23.35,23.35,0,0,0,33.9,55.9a23.65,23.65,0,0,0,8.34,7.33,1.64,1.64,0,0,0,1.53,0A23.65,23.65,0,0,0,52.1,55.9a23.34,23.34,0,0,0,4.25-13.49v-9.2A1.66,1.66,0,0,0,55.17,31.63Zm-1,10.78A21.16,21.16,0,0,1,50.3,54.64,21.46,21.46,0,0,1,43,61.16a21.46,21.46,0,0,1-7.3-6.51,21.16,21.16,0,0,1-3.85-12.23V33.62L43,30.33l11.16,3.29Z" style="fill:#fff"/><path d="M43,30.33V61.16s9.5-1.91,11.25-13.66-.09-13.88-.09-13.88Z" style="fill:#fff"/></g></g></svg>