<svg xmlns="http://www.w3.org/2000/svg" viewBox="0 0 86 86"><title>icon_cargo</title><g id="Layer_2" data-name="Layer 2"><g id="Layer_1-2" data-name="Layer 1"><circle cx="43" cy="43" r="43" style="fill:#4dd63b"/><path d="M60,51.11a4,4,0,1,0,4,4A4,4,0,0,0,60,51.11Zm0,5.2a1.18,1.18,0,1,1,1.18-1.18A1.18,1.18,0,0,1,60,56.31Z" style="fill:#fff"/><path d="M59.57,34.4H52.62a1,1,0,0,0-.95.95V53.79a1,1,0,0,0,.95.95h1a.94.94,0,0,0,.94-.8,5.45,5.45,0,0,1,10.77,0,.94.94,0,0,0,.94.8h1a1,1,0,0,0,.95-.95V44.56A.94.94,0,0,0,68,44l-7.72-9.22A1,1,0,0,0,59.57,34.4Zm-6,7.57V37.23a1,1,0,0,1,.95-.95h4.17a1,1,0,0,1,.73.34l3.94,4.73a1,1,0,0,1-.73,1.55H54.51A1,1,0,0,1,53.57,42Z" style="fill:#fff"/><path d="M21.88,54.73h2.42a.94.94,0,0,0,.94-.8,5.21,5.21,0,0,1,5.38-4.61A5.21,5.21,0,0,1,36,53.93a.94.94,0,0,0,.94.8H48.84a1,1,0,0,0,.95-.95V30.14a1,1,0,0,0-.95-.95h-27a1,1,0,0,0-.95.95V53.79A1,1,0,0,0,21.88,54.73Z" style="fill:#fff"/><path d="M30.63,51.11a4,4,0,1,0,4,4A4,4,0,0,0,30.63,51.11Zm0,5.2a1.18,1.18,0,1,1,1.18-1.18A1.18,1.18,0,0,1,30.63,56.31Z" style="fill:#fff"/></g></g></svg>