<svg xmlns="http://www.w3.org/2000/svg" viewBox="0 0 158.2 50.14"><title>logo_main</title><g id="Layer_2" data-name="Layer 2"><g id="Layer_1-2" data-name="Layer 1"><path d="M19.47,15.7A4.54,4.54,0,0,1,20.28,13a7.43,7.43,0,0,1,2-2A9.77,9.77,0,0,1,25,9.83a10.52,10.52,0,0,1,2.86-.42,7.76,7.76,0,0,1,1.75.19c.56.13.84.37.84.71s-.22.55-.65,1a5.41,5.41,0,0,1-2.14,1.2l-.84.45a11.78,11.78,0,0,0-1.17.75,6.17,6.17,0,0,0-1,.94,1.53,1.53,0,0,0-.46,1q0,.84,1.82,1.56a12.07,12.07,0,0,0,4.41.71,17.68,17.68,0,0,0,3.89-.45A16.58,16.58,0,0,0,38,16.19a8.49,8.49,0,0,0,2.72-2,4.14,4.14,0,0,0,1.07-2.79A3.72,3.72,0,0,0,41,9a6.28,6.28,0,0,0-2-1.62,12.94,12.94,0,0,0-2.69-1,20.33,20.33,0,0,0-2.82-.55q-1.36-.16-2.4-.19l-1.36,0A31.18,31.18,0,0,0,24.43,6a32.32,32.32,0,0,0-10.87,4,21,21,0,0,0-4.45,3.47,16.11,16.11,0,0,0-3,4.41,12.51,12.51,0,0,0-1.13,5.35,11.29,11.29,0,0,0,1.07,5,13.59,13.59,0,0,0,2.82,3.89,16.86,16.86,0,0,0,4,2.85,28.54,28.54,0,0,0,4.7,1.91A33,33,0,0,0,22.39,38a30.5,30.5,0,0,0,4.48.36,44,44,0,0,0,9.6-1.07,43.3,43.3,0,0,0,9.28-3.21,21.78,21.78,0,0,1,3.76-1.52q1-.23,1,.1A1.81,1.81,0,0,1,49.77,34a25.27,25.27,0,0,1-2.27,1.62,42.94,42.94,0,0,1-11.23,5.29A40.45,40.45,0,0,1,24.53,42.7a30.79,30.79,0,0,1-8-1.17,28.18,28.18,0,0,1-8-3.54,20.93,20.93,0,0,1-6.1-6A15,15,0,0,1,0,23.42a18.34,18.34,0,0,1,2.73-9.9,25.16,25.16,0,0,1,7-7.36,33.24,33.24,0,0,1,9.44-4.57A34.68,34.68,0,0,1,29.33,0,32.27,32.27,0,0,1,35.2.58a22.06,22.06,0,0,1,5.87,1.95,13.43,13.43,0,0,1,4.54,3.63,8.75,8.75,0,0,1,1.82,5.65,8.1,8.1,0,0,1-1.59,4.9,13.42,13.42,0,0,1-4.06,3.63,21.29,21.29,0,0,1-5.39,2.24,21.66,21.66,0,0,1-5.58.78,20.29,20.29,0,0,1-4.12-.42A12.11,12.11,0,0,1,23,21.57a7.82,7.82,0,0,1-2.6-2.37A6.07,6.07,0,0,1,19.47,15.7Z" style="fill:#fd6e09"/><path d="M56.26,21.54a3.26,3.26,0,0,1,1.59.84A6.48,6.48,0,0,1,59,23.81a1.88,1.88,0,0,1,1.3-.65,3.2,3.2,0,0,1,1.49.23,2.69,2.69,0,0,1,1.17.91,1.88,1.88,0,0,1,.32,1.46q-.26,1.17-.49,2.92t-.29,3.37a15.89,15.89,0,0,0,.1,2.79q.16,1.17.68,1.17t.94-1a22.76,22.76,0,0,0,1.1-2.37q.55-1.36,1-2.73a16.62,16.62,0,0,0,.58-2.08,1.34,1.34,0,0,1,.65-.88,1.28,1.28,0,0,1,.88-.13,1.23,1.23,0,0,1,.71.49,1,1,0,0,1,.1,1q-.13.39-.42,1.46t-.75,2.37q-.45,1.3-1.07,2.69a12.37,12.37,0,0,1-1.43,2.47,6.22,6.22,0,0,1-1.82,1.65,2.72,2.72,0,0,1-2.17.26,4.1,4.1,0,0,1-2.73-2.27,10.53,10.53,0,0,1-1.43,2.82,5.29,5.29,0,0,1-2.34,1.85,4.3,4.3,0,0,1-2.4.19,5,5,0,0,1-3-2.34,11.61,11.61,0,0,1-1.49-4.22,17.56,17.56,0,0,1-.06-5,14.89,14.89,0,0,1,1.33-4.67,8.43,8.43,0,0,1,2.69-3.28A5.13,5.13,0,0,1,56.26,21.54Zm1.69,6.55A10.33,10.33,0,0,0,57.46,26q-.36-1-1.07-1.17a1.88,1.88,0,0,0-1.85.75A7.32,7.32,0,0,0,53.21,28a17.4,17.4,0,0,0-.75,3.41,19.36,19.36,0,0,0-.13,3.5,10.06,10.06,0,0,0,.52,2.82q.42,1.17,1.27,1.3t1.59-.91A10.17,10.17,0,0,0,57,35.49a20.46,20.46,0,0,0,.84-3.6A15,15,0,0,0,57.94,28.1Z" style="fill:#fd6e09"/><path d="M67.61,18c0-.3,0-.59,0-.88s0-.53,0-.75a2.52,2.52,0,0,1,.84-2.17,2.7,2.7,0,0,1,1.82-.55,2.85,2.85,0,0,1,1.72.71A1.68,1.68,0,0,1,72.61,16l-.32,1.69h1.56a3,3,0,0,1,1.78.42,1.17,1.17,0,0,1,.55.91,1.08,1.08,0,0,1-.58.88,2.9,2.9,0,0,1-1.62.39H72q-.26,2.34-.45,5.16t-.26,5.32a40.76,40.76,0,0,0,.07,4.15q.13,1.65.58,1.65T73,35.43q.68-1.17,1.4-2.69t1.3-3q.58-1.46.78-2a1,1,0,0,1,.58-.78,1.39,1.39,0,0,1,.88-.1,1.28,1.28,0,0,1,.71.45.94.94,0,0,1,.1.94q-.39,1.3-1,3.37a27,27,0,0,1-1.62,4,13.72,13.72,0,0,1-2.34,3.37,4.34,4.34,0,0,1-3.24,1.43,2.46,2.46,0,0,1-2-1A6.56,6.56,0,0,1,67.35,37a19.25,19.25,0,0,1-.49-3.67q-.1-2.08,0-4.28t.26-4.44q.19-2.24.33-4.12H65.86A2.74,2.74,0,0,1,64.27,20a1.18,1.18,0,0,1-.58-.84,1,1,0,0,1,.49-.84A2.86,2.86,0,0,1,65.86,18Z" style="fill:#fd6e09"/><path d="M87.21,27.9a4.21,4.21,0,0,1-1.3,1.17,8.53,8.53,0,0,1-1.69.75,11,11,0,0,1-1.85.42q-.94.13-1.66.19a22.8,22.8,0,0,0-.23,2.66,13,13,0,0,0,.13,2.34,6,6,0,0,0,.52,1.75,1.65,1.65,0,0,0,1,.91A2.26,2.26,0,0,0,84,37.8a8,8,0,0,0,1.88-1.52A16.48,16.48,0,0,0,87.6,34q.84-1.3,1.49-2.5t1.1-2.21a12.37,12.37,0,0,0,.58-1.46,1.22,1.22,0,0,1,.62-.78,1.38,1.38,0,0,1,.81-.13,1,1,0,0,1,.65.42,1.13,1.13,0,0,1,.13.94q-.13.39-.45,1.52a21.57,21.57,0,0,1-.94,2.56,29.25,29.25,0,0,1-1.49,3A13.91,13.91,0,0,1,88,38.12a11.33,11.33,0,0,1-2.82,2.11,7.43,7.43,0,0,1-3.54.84A4.39,4.39,0,0,1,78,39.45a9,9,0,0,1-1.75-4.09,18.55,18.55,0,0,1-.16-5.29,22.72,22.72,0,0,1,1.17-5.29,13.53,13.53,0,0,1,2.21-4.09,3.81,3.81,0,0,1,3-1.62,4,4,0,0,1,2.76,1.07A7.46,7.46,0,0,1,87,22.65a8.31,8.31,0,0,1,.75,2.92A3.37,3.37,0,0,1,87.21,27.9Zm-4-5.77q-.45.19-1,1.65a29.12,29.12,0,0,0-1,3.54,6.39,6.39,0,0,0,1.43-.16,1.56,1.56,0,0,0,1-.68A2.46,2.46,0,0,0,84,25.34a7.27,7.27,0,0,0,0-1.52,4.79,4.79,0,0,0-.32-1.3Q83.44,22,83.18,22.13Z" style="fill:#fd6e09"/><path d="M92.79,28.68a1.11,1.11,0,0,1-.55.75,1.24,1.24,0,0,1-.88.13,1.15,1.15,0,0,1-.71-.45.91.91,0,0,1,0-.94l.39-1.1a2.13,2.13,0,0,1-.65-1.36,2.81,2.81,0,0,1,.26-1.46,3.25,3.25,0,0,1,.94-1.17A2.19,2.19,0,0,1,93,22.58q1.36,0,1.49,1a4.35,4.35,0,0,1-.39,2.24,2.26,2.26,0,0,0,1.26.06A16.2,16.2,0,0,1,97,25.73a2.23,2.23,0,0,1,1.3.29q.52.33.26,1.49T98,30.3q-.29,1.62-.42,3.08a11.78,11.78,0,0,0,0,2.5q.13,1,.71,1,.39,0,1-1.14t1.27-2.63q.65-1.49,1.17-3a16.19,16.19,0,0,0,.65-2.3,1.3,1.3,0,0,1,.55-.91,1.45,1.45,0,0,1,.88-.23,1,1,0,0,1,.75.39,1.33,1.33,0,0,1,.23,1q-.07.33-.32,1.4t-.71,2.4q-.46,1.33-1.1,2.79a14.37,14.37,0,0,1-1.56,2.69,8.28,8.28,0,0,1-2,2,4,4,0,0,1-2.47.68,2.53,2.53,0,0,1-2.27-1.4,8.56,8.56,0,0,1-.91-3.18,16.09,16.09,0,0,1,.1-3.93,20.59,20.59,0,0,1,.81-3.63,3.29,3.29,0,0,1-.65.06H93A2,2,0,0,0,92.79,28.68Z" style="fill:#fd6e09"/><path d="M109.85,16.87a2.14,2.14,0,0,1-.16,1.33,3.23,3.23,0,0,1-.88,1.1,5.29,5.29,0,0,1-1.36.81,6.91,6.91,0,0,1-1.62.45,7.21,7.21,0,0,1-3.18-.32,2.29,2.29,0,0,1-1.75-1.88,2.48,2.48,0,0,1,.88-2.43,6.73,6.73,0,0,1,6.39-1A2.48,2.48,0,0,1,109.85,16.87Zm-7.4,8.89a2.47,2.47,0,0,1,.81-2.14,2.41,2.41,0,0,1,1.78-.45,2.87,2.87,0,0,1,1.69.84,1.85,1.85,0,0,1,.52,1.75q-.26,1.17-.49,2.92t-.29,3.37a15.89,15.89,0,0,0,.1,2.79q.16,1.17.75,1.17.39,0,.94-1a19.37,19.37,0,0,0,1.07-2.37q.52-1.36,1-2.73a16.62,16.62,0,0,0,.58-2.08,1.34,1.34,0,0,1,.65-.88,1.28,1.28,0,0,1,.88-.13,1.22,1.22,0,0,1,.71.49,1,1,0,0,1,.1,1q-.13.39-.42,1.46t-.75,2.37q-.45,1.3-1.07,2.69a12.37,12.37,0,0,1-1.43,2.47,6.4,6.4,0,0,1-1.78,1.65,2.63,2.63,0,0,1-2.14.26,3.94,3.94,0,0,1-2.5-1.91,8,8,0,0,1-.88-3.24,28.15,28.15,0,0,1,0-4Q102.45,27.84,102.45,25.76Z" style="fill:#fd6e09"/><path d="M111.15,24.72a2.77,2.77,0,0,1,1.1-1.95,3.6,3.6,0,0,1,1.85-.71,2.67,2.67,0,0,1,1.65.39,1.34,1.34,0,0,1,.58,1.43q-.13.91-.36,2t-.42,2.27q-.19,1.14-.29,2.14a8.72,8.72,0,0,0,0,1.65,20.37,20.37,0,0,1,1.2-3.15,15.53,15.53,0,0,1,1.4-2.37,3.35,3.35,0,0,1,1.43-1,4.33,4.33,0,0,1,1.75-.32,2.14,2.14,0,0,1,1.36.49,1.07,1.07,0,0,1,.19,1.3,10.65,10.65,0,0,0-.36,1.82,19.09,19.09,0,0,0-.16,2.5,16.3,16.3,0,0,0,.13,2.21c.09.63.24.94.45.94s.61-.24,1-.71A13.1,13.1,0,0,0,125,32a20.31,20.31,0,0,0,1.2-2.14,14.36,14.36,0,0,0,.81-2,1,1,0,0,1,.55-.78,1.38,1.38,0,0,1,.81-.13,1,1,0,0,1,.65.42,1.13,1.13,0,0,1,.13.94,13,13,0,0,1-.91,2.47,23.65,23.65,0,0,1-1.69,3,15.21,15.21,0,0,1-2.14,2.63,3.35,3.35,0,0,1-2.27,1.14,3.26,3.26,0,0,1-2.69-1,5.24,5.24,0,0,1-1.07-2.27,9.62,9.62,0,0,1-.19-2.47,4.68,4.68,0,0,0-.07-1.52q-.33.13-.68.91a15.35,15.35,0,0,0-.68,1.82q-.33,1-.58,2.17a13.83,13.83,0,0,0-.32,1.91,1.68,1.68,0,0,1-.88,1.27,3.24,3.24,0,0,1-1.62.42,2.9,2.9,0,0,1-1.59-.45,1.44,1.44,0,0,1-.65-1.43q.06-1.1,0-2.66T111,31q-.06-1.72-.06-3.34A14.9,14.9,0,0,1,111.15,24.72Z" style="fill:#fd6e09"/><path d="M141.38,25.5q-.33,3.18-.39,5.58t-.13,4.41A26.53,26.53,0,0,0,145,27.84a1.38,1.38,0,0,1,.62-.88,1.06,1.06,0,0,1,.84-.1,1.11,1.11,0,0,1,.65.52,1.29,1.29,0,0,1,0,1,25.24,25.24,0,0,1-2.89,6.46,23.64,23.64,0,0,1-3.6,4.38q-.13,1-.36,2.08t-.55,2.14a9.68,9.68,0,0,1-3,4.77,8.19,8.19,0,0,1-3.89,1.82,6.86,6.86,0,0,1-3.7-.42,4.14,4.14,0,0,1-2.3-1.95,4.19,4.19,0,0,1-.23-3.67A6.66,6.66,0,0,1,129,41.33a13.57,13.57,0,0,1,3.57-1.72,16.4,16.4,0,0,1,3.37-.75l.2-1.75a4.57,4.57,0,0,1-1.4,1.23,4.33,4.33,0,0,1-2.24.52,5.09,5.09,0,0,1-3.76-1.36,7,7,0,0,1-1.85-3.44,12.78,12.78,0,0,1-.19-4.48,15.45,15.45,0,0,1,1.2-4.44,9.73,9.73,0,0,1,2.4-3.37,5,5,0,0,1,3.44-1.33,3.9,3.9,0,0,1,2.27.78,5.4,5.4,0,0,1,1.88,2.21,4.46,4.46,0,0,1,1.2-.1,3.56,3.56,0,0,1,1.17.26,1.9,1.9,0,0,1,.88.71A1.82,1.82,0,0,1,141.38,25.5Zm-5.84,15.77a9.39,9.39,0,0,0-3.47,1.33,4.05,4.05,0,0,0-1.91,2.82,1.6,1.6,0,0,0,.36,1.56,1.33,1.33,0,0,0,1.4.26,4.16,4.16,0,0,0,1.82-1.46,9.85,9.85,0,0,0,1.62-3.6Zm.13-7.92a12.71,12.71,0,0,0,.78-3.24,14.92,14.92,0,0,0,0-3.24,7.81,7.81,0,0,0-.68-2.56,1.89,1.89,0,0,0-1.3-1.2,1.58,1.58,0,0,0-1.53.81,8.87,8.87,0,0,0-1.17,2.4,15.61,15.61,0,0,0-.68,3.18,14.61,14.61,0,0,0,0,3.21,6.65,6.65,0,0,0,.71,2.5,1.73,1.73,0,0,0,1.59,1,1.34,1.34,0,0,0,.88-.29,2.36,2.36,0,0,0,.58-.71,7.6,7.6,0,0,0,.42-.94A9.87,9.87,0,0,1,135.67,33.35Z" style="fill:#fd6e09"/><path d="M154.88,22.26a1.68,1.68,0,0,1,1.69,0,3.18,3.18,0,0,1,1.3,1.27,2.45,2.45,0,0,1,.29,1.69,1.6,1.6,0,0,1-1.33,1.2l-2.17.52q-1.14.26-2.14.45l-1.72.36a5.64,5.64,0,0,1-.91.16,13.65,13.65,0,0,1,1.39.36A12.3,12.3,0,0,1,154,29.43a9.81,9.81,0,0,1,2.59,2.17A5.1,5.1,0,0,1,157.73,35a4.49,4.49,0,0,1-1.56,3.6,8.22,8.22,0,0,1-3.63,1.78,8.05,8.05,0,0,1-2.5,0,5.45,5.45,0,0,1-2.14-.81,4.6,4.6,0,0,1-1.52-1.69,5.27,5.27,0,0,1-.58-2.56,2.46,2.46,0,0,1,.81-1.95,3.8,3.8,0,0,1,1.75-.91,2.47,2.47,0,0,1,1.69.19,1.21,1.21,0,0,1,.62,1.36,4.64,4.64,0,0,0,.19,2.92q.52.91,1,.91a1.4,1.4,0,0,0,1.07-.45,2,2,0,0,0,.49-1.2,4.12,4.12,0,0,0-.26-1.69,7.31,7.31,0,0,0-1-1.91,6.93,6.93,0,0,0-1.46-1.52,13.63,13.63,0,0,0-1.75-1.17,10.9,10.9,0,0,0-1.72-.78q-.85-.29-1.36-.42a1.25,1.25,0,0,1-.88-.81,3.24,3.24,0,0,1-.26-1.43,2.33,2.33,0,0,1,.52-1.36,1.75,1.75,0,0,1,1.46-.62,15.79,15.79,0,0,0,4.19-.62A16.21,16.21,0,0,0,154.88,22.26Z" style="fill:#fd6e09"/></g></g></svg>