<svg xmlns="http://www.w3.org/2000/svg" viewBox="0 0 51.83 51.34"><title>paket_katering</title><g id="Layer_2" data-name="Layer 2"><g id="Layer_1-2" data-name="Layer 1"><path d="M49.59,13.86C47.75,9.31,44.31,3.4,38.38,1,34-.68,29-.27,23.42,2.28c-7,3.18-9.27,8.89-6.43,16.07a6.55,6.55,0,0,1-7,9c-3.79-.5-6.7.35-8.42,2.46C.26,31.38-.91,34.46,1,40l0,.09A20.94,20.94,0,0,0,13,50.24a24.45,24.45,0,0,0,5.6.94l.29,0c.62.06,1.68.13,3.06.13a38.06,38.06,0,0,0,14.26-2.67,23.83,23.83,0,0,0,14.8-17.19A28.7,28.7,0,0,0,49.59,13.86ZM49.12,31A21.93,21.93,0,0,1,35.5,46.82a36.85,36.85,0,0,1-16.38,2.4l-.29,0a22.61,22.61,0,0,1-5.15-.85A19.31,19.31,0,0,1,2.88,39.27c-1.24-3.6-1.16-6.53.24-8.25,1.26-1.54,3.54-2.14,6.61-1.74a8.54,8.54,0,0,0,9.12-11.67c-2.46-6.21-.64-10.76,5.4-13.51,5.07-2.31,9.58-2.71,13.4-1.19C42.91,5,46,10.43,47.74,14.61A26.7,26.7,0,0,1,49.12,31Z" style="fill:#ff6e09"/><path d="M33.46,18.54a5,5,0,1,0-5-5A5,5,0,0,0,33.46,18.54Zm0-8a3,3,0,1,1-3,3A3,3,0,0,1,33.46,10.54Z" style="fill:#ff6e09"/><path d="M47.78,24a25.75,25.75,0,0,0-1.89-8.55C41.56,4.75,34.43,1.5,24.75,5.91c-1.94.88-7.83,3.57-4.65,11.64a9.24,9.24,0,0,1-9.86,12.62c-2.64-.35-4.61.17-5.52,1.46s-1,3.72,0,6.64l.06.14a17.21,17.21,0,0,0,9.69,8,20.94,20.94,0,0,0,4.71.77l.28,0c.85.08,1.76.11,2.71.11,18.89,0,23.77-11.75,25-16.81a23.37,23.37,0,0,0,.61-6.36A.86.86,0,0,0,47.78,24ZM25.58,7.73A17,17,0,0,1,32.51,6C37.41,6,41.29,9.42,44,16.2a24.15,24.15,0,0,1,1.6,6.15C41.16,21.09,33.23,25,31.91,25.7c-6,1.9-8.75-.83-9.51-1.79A11.25,11.25,0,0,0,22,16.81C19.77,11.26,22.56,9.11,25.58,7.73Zm-4.74,19.6A11.47,11.47,0,0,0,21.63,26a9.31,9.31,0,0,0,6.45,2.38,14.72,14.72,0,0,0,4.52-.77l.15-.06c3.94-2.05,10.76-4.54,13.06-2.93a21.36,21.36,0,0,1-.58,5.49l0,.13C43,29.59,37.74,29,29,33.15c-3,1.43-5.56,1.71-7.65.83a7.59,7.59,0,0,1-3.66-3.6A11.21,11.21,0,0,0,20.84,27.33ZM19.66,45.24l-.28,0a19.54,19.54,0,0,1-4.26-.67,15.41,15.41,0,0,1-8.5-7c-.86-2.58-.7-4.15-.27-4.76s1.84-.87,3.63-.63a11.4,11.4,0,0,0,5.74-.73c.06.33.12.69.18,1.09a12.71,12.71,0,0,0,5.33,8.6c2.06,1.42,3.45,2.7,3.51,4.16-.82.05-1.67.09-2.56.09S20.45,45.31,19.66,45.24Zm7.09-.16c-.16-2.71-2.84-4.56-4.38-5.62a10.66,10.66,0,0,1-3.87-4.91,8.41,8.41,0,0,0,2.08,1.26c2.65,1.12,5.78.83,9.31-.86,8.19-3.93,13-3.32,14.73-2.84C43,36.69,38.51,43.65,26.75,45.08Z" style="fill:#ff6e09"/></g></g></svg>