<svg xmlns="http://www.w3.org/2000/svg" viewBox="0 0 58 55.9"><title>paket_acara</title><g id="Layer_2" data-name="Layer 2"><g id="Layer_1-2" data-name="Layer 1"><path d="M45.77,5.11a13.74,13.74,0,0,0-5.61.43,14,14,0,0,0-22.32,0,13.79,13.79,0,0,0-5.61-.43,14,14,0,0,0-1.62,27.47,3.65,3.65,0,0,1,2.75,3.19l.84,8.8h0l.48,5c.2,2.15,2.92,3.62,4.06,4.15l.38.17a25.61,25.61,0,0,0,19.76,0c.7-.29,4.22-1.86,4.45-4.32l.48-5h0l.84-8.8a3.65,3.65,0,0,1,2.75-3.19A14,14,0,0,0,45.77,5.11Zm-7.66,47a23.6,23.6,0,0,1-18.22,0c-1.25-.52-3.13-1.72-3.22-2.66l-.12-1.3a28.39,28.39,0,0,0,24.92,0l-.12,1.3C41.25,50.35,39.36,51.56,38.11,52.08Zm8.8-21.43a5.65,5.65,0,0,0-4.25,4.94l-1,10.16a26.37,26.37,0,0,1-25.37,0l-1-10.16a5.65,5.65,0,0,0-4.25-4.94A12,12,0,0,1,12.49,7.1,11.83,11.83,0,0,1,14,7a12,12,0,0,1,3.9.66l.72.25.43-.63a12,12,0,0,1,19.88,0l.43.63.72-.25a11.84,11.84,0,0,1,5.42-.56,12,12,0,0,1,1.4,23.55Z" style="fill:#4dd63b"/><path d="M18.88,34A1,1,0,0,0,18,35.12l1,8A1,1,0,0,0,20,44h.13A1,1,0,0,0,21,42.88l-1-8A1,1,0,0,0,18.88,34Z" style="fill:#4dd63b"/><path d="M26,36a1,1,0,0,0-1,1v8a1,1,0,0,0,2,0V37A1,1,0,0,0,26,36Z" style="fill:#4dd63b"/><path d="M39.12,34a1,1,0,0,0-1.12.87l-1,8A1,1,0,0,0,37.88,44H38a1,1,0,0,0,1-.88l1-8A1,1,0,0,0,39.12,34Z" style="fill:#4dd63b"/><path d="M32,36a1,1,0,0,0-1,1v8a1,1,0,0,0,2,0V37A1,1,0,0,0,32,36Z" style="fill:#4dd63b"/><path d="M16,10C7.66,9.93,6,16.72,6,16.79A1,1,0,0,0,6.79,18L7,18a1,1,0,0,0,1-.79c0-.05,1.21-5.33,8-5.21a1,1,0,0,0,1-1A1,1,0,0,0,16,10Z" style="fill:#4dd63b"/><path d="M23.39,6.21a1,1,0,0,0,1.22,1.58,7.62,7.62,0,0,1,8.82,0,1,1,0,1,0,1.15-1.64A9.57,9.57,0,0,0,23.39,6.21Z" style="fill:#4dd63b"/></g></g></svg>