<svg xmlns="http://www.w3.org/2000/svg" viewBox="0 0 28.6 28.6"><title>social_instagram</title><g id="Layer_2" data-name="Layer 2"><g id="Layer_1-2" data-name="Layer 1"><path d="M20.71,0H7.89A7.9,7.9,0,0,0,0,7.89V20.71A7.9,7.9,0,0,0,7.89,28.6H20.71a7.9,7.9,0,0,0,7.89-7.89V7.89A7.9,7.9,0,0,0,20.71,0Zm5.35,20.71a5.36,5.36,0,0,1-5.35,5.35H7.89a5.36,5.36,0,0,1-5.35-5.35V7.89A5.36,5.36,0,0,1,7.89,2.54H20.71a5.36,5.36,0,0,1,5.35,5.35V20.71Z" style="fill:#8c8c8c"/><path d="M14.3,6.93a7.37,7.37,0,1,0,7.37,7.37A7.38,7.38,0,0,0,14.3,6.93Zm0,12.2a4.83,4.83,0,1,1,4.83-4.83A4.84,4.84,0,0,1,14.3,19.13Z" style="fill:#8c8c8c"/><path d="M22,4.78a1.86,1.86,0,1,0,1.32.54A1.87,1.87,0,0,0,22,4.78Z" style="fill:#8c8c8c"/></g></g></svg>