<svg xmlns="http://www.w3.org/2000/svg" viewBox="0 0 27.28 27.28"><title>social_line</title><g id="Layer_2" data-name="Layer 2"><g id="Layer_1-2" data-name="Layer 1"><path d="M21.07,0H6.21A6.21,6.21,0,0,0,0,6.21V21.07a6.21,6.21,0,0,0,6.21,6.21H21.07a6.21,6.21,0,0,0,6.21-6.21V6.21A6.21,6.21,0,0,0,21.07,0Zm1.31,14.9a3.13,3.13,0,0,1-.44,1.59C21.1,18,18.86,18,18.32,17.91a3.14,3.14,0,0,1-1.61-1.09A3.69,3.69,0,0,1,16,14.16a2.43,2.43,0,1,0-1.32,1.65.93.93,0,0,1,.86.68,1.24,1.24,0,0,1-.34,1.29,4.35,4.35,0,0,1-1.54.29,4.42,4.42,0,1,1,3.88-6.51l0,0s.42.5.46,2.88h0a4.42,4.42,0,0,1-.09.47,1.38,1.38,0,0,0,2.31.75,6.82,6.82,0,0,0,.28-1.59,19.86,19.86,0,0,0-.24-2.16h0c0-.09-.06-.17-.09-.26a2,2,0,0,0-.2-.57,6.82,6.82,0,1,0-3.33,8.69,1,1,0,0,1,.65,1.78,8.73,8.73,0,1,1,5.1-7.93c0,.28,0,.56,0,.84A3.13,3.13,0,0,1,22.38,14.9Z" style="fill:#8c8c8c"/></g></g></svg>